<svg width="1200" height="900" viewBox="0 0 1200 900" fill="none" xmlns="http://www.w3.org/2000/svg">
  <rect width="1200" height="900" rx="48" fill="#F5E8D8"/>
  <rect x="56" y="56" width="1088" height="788" rx="42" fill="#FFF8EF"/>
  <ellipse cx="610" cy="730" rx="320" ry="72" fill="#E7D0B7"/>
  <ellipse cx="610" cy="452" rx="280" ry="206" fill="#F0E3D2"/>
  <ellipse cx="610" cy="452" rx="250" ry="182" fill="#FBF2E7"/>
  <g transform="translate(332 278)">
    <g transform="rotate(-7 130 162)">
      <rect x="0" y="72" width="260" height="180" rx="90" fill="#B86A3B"/>
      <rect x="16" y="90" width="228" height="144" rx="72" fill="#F3C688"/>
      <path d="M40 158C79 129 121 114 161 114C197 114 225 128 245 152C221 193 179 219 129 219C89 219 57 200 40 158Z" fill="#8C4A29"/>
      <path d="M58 154C89 132 122 121 153 121C181 121 203 131 219 149C199 181 166 199 128 199C99 199 74 186 58 154Z" fill="#A6582F"/>
      <circle cx="77" cy="133" r="8" fill="#FBE2B9"/>
      <circle cx="110" cy="122" r="7" fill="#FBE2B9"/>
      <circle cx="195" cy="133" r="7" fill="#FBE2B9"/>
    </g>
    <g transform="translate(165 18) rotate(11 130 162)">
      <rect x="0" y="72" width="260" height="180" rx="90" fill="#B86A3B"/>
      <rect x="16" y="90" width="228" height="144" rx="72" fill="#F3C688"/>
      <path d="M40 158C79 129 121 114 161 114C197 114 225 128 245 152C221 193 179 219 129 219C89 219 57 200 40 158Z" fill="#8C4A29"/>
      <path d="M58 154C89 132 122 121 153 121C181 121 203 131 219 149C199 181 166 199 128 199C99 199 74 186 58 154Z" fill="#A6582F"/>
      <circle cx="94" cy="126" r="8" fill="#FBE2B9"/>
      <circle cx="138" cy="120" r="7" fill="#FBE2B9"/>
      <circle cx="203" cy="140" r="7" fill="#FBE2B9"/>
    </g>
    <g transform="translate(82 150) rotate(6 130 162)">
      <rect x="0" y="72" width="260" height="180" rx="90" fill="#B86A3B"/>
      <rect x="16" y="90" width="228" height="144" rx="72" fill="#F3C688"/>
      <path d="M40 158C79 129 121 114 161 114C197 114 225 128 245 152C221 193 179 219 129 219C89 219 57 200 40 158Z" fill="#8C4A29"/>
      <path d="M58 154C89 132 122 121 153 121C181 121 203 131 219 149C199 181 166 199 128 199C99 199 74 186 58 154Z" fill="#A6582F"/>
      <circle cx="82" cy="130" r="8" fill="#FBE2B9"/>
      <circle cx="128" cy="120" r="7" fill="#FBE2B9"/>
      <circle cx="202" cy="145" r="7" fill="#FBE2B9"/>
    </g>
  </g>
  <path d="M398 277C424 254 465 238 520 230" stroke="#DFC4A4" stroke-width="10" stroke-linecap="round"/>
  <path d="M821 353C842 369 859 393 871 425" stroke="#DFC4A4" stroke-width="10" stroke-linecap="round"/>
</svg>
