<svg width="1200" height="900" viewBox="0 0 1200 900" fill="none" xmlns="http://www.w3.org/2000/svg">
  <rect width="1200" height="900" rx="48" fill="#F4E9D5"/>
  <rect x="56" y="56" width="1088" height="788" rx="42" fill="#FFF8ED"/>
  <ellipse cx="600" cy="726" rx="316" ry="70" fill="#E7D7BB"/>
  <ellipse cx="600" cy="456" rx="292" ry="214" fill="#F1E2CD"/>
  <ellipse cx="600" cy="456" rx="262" ry="188" fill="#FBF4EA"/>
  <g>
    <path d="M356 468C356 382 424 312 508 312C588 312 647 379 647 451C647 527 589 588 510 588C425 588 356 548 356 468Z" fill="#CC8534"/>
    <path d="M370 471C370 401 430 338 504 338C571 338 620 390 620 450C620 516 568 563 507 563C438 563 370 531 370 471Z" fill="#E7A348"/>
    <circle cx="454" cy="397" r="10" fill="#F6D07F"/>
    <circle cx="503" cy="374" r="12" fill="#F6D07F"/>
    <circle cx="557" cy="401" r="10" fill="#F6D07F"/>
    <circle cx="526" cy="443" r="9" fill="#F6D07F"/>
    <circle cx="463" cy="458" r="8" fill="#F6D07F"/>
  </g>
  <g>
    <path d="M540 326C540 254 600 202 670 202C738 202 796 249 796 318C796 391 742 440 672 440C606 440 540 397 540 326Z" fill="#B45C25"/>
    <path d="M555 327C555 269 606 225 668 225C726 225 773 264 773 318C773 378 727 416 670 416C611 416 555 381 555 327Z" fill="#D97534"/>
    <circle cx="617" cy="281" r="9" fill="#F6B16B"/>
    <circle cx="679" cy="263" r="10" fill="#F6B16B"/>
    <circle cx="720" cy="302" r="8" fill="#F6B16B"/>
    <circle cx="657" cy="330" r="9" fill="#F6B16B"/>
  </g>
  <g>
    <path d="M612 460C612 401 660 356 718 356C778 356 838 402 838 470C838 539 781 588 717 588C653 588 612 527 612 460Z" fill="#D09239"/>
    <path d="M626 463C626 414 667 379 717 379C771 379 813 417 813 468C813 520 770 564 717 564C665 564 626 517 626 463Z" fill="#E7B45A"/>
    <circle cx="671" cy="427" r="8" fill="#F9D68B"/>
    <circle cx="719" cy="405" r="10" fill="#F9D68B"/>
    <circle cx="765" cy="449" r="9" fill="#F9D68B"/>
    <circle cx="713" cy="489" r="8" fill="#F9D68B"/>
  </g>
</svg>
