<svg width="1600" height="900" viewBox="0 0 1600 900" fill="none" xmlns="http://www.w3.org/2000/svg">
  <rect width="1600" height="900" rx="42" fill="#F6E8D8"/>
  <rect x="80" y="140" width="1440" height="650" rx="36" fill="#FFF8EF"/>
  <rect x="190" y="250" width="1220" height="420" rx="24" fill="#F1D7BE"/>
  <rect x="220" y="280" width="1160" height="100" rx="18" fill="#A94F2A"/>
  <rect x="270" y="420" width="270" height="190" rx="18" fill="#FFF0DC"/>
  <rect x="665" y="420" width="270" height="190" rx="18" fill="#FFF0DC"/>
  <rect x="1060" y="420" width="270" height="190" rx="18" fill="#FFF0DC"/>
  <circle cx="405" cy="510" r="72" fill="#D79D3D"/>
  <rect x="340" y="585" width="130" height="18" rx="9" fill="#C58B2E"/>
  <rect x="735" y="455" width="120" height="110" rx="22" fill="#D69B61"/>
  <circle cx="780" cy="510" r="22" fill="#8B4F2D"/>
  <circle cx="810" cy="510" r="22" fill="#8B4F2D"/>
  <circle cx="840" cy="510" r="22" fill="#8B4F2D"/>
  <path d="M1110 555C1110 485 1160 425 1230 425C1298 425 1345 481 1345 544C1345 592 1307 624 1250 624C1185 624 1110 605 1110 555Z" fill="#D65B2C"/>
  <rect x="490" y="180" width="620" height="68" rx="20" fill="#FFF5EA"/>
  <text x="800" y="226" text-anchor="middle" fill="#7A371A" font-size="40" font-family="Georgia, serif" font-weight="700">Ratisabilla Snack</text>
  <text x="800" y="748" text-anchor="middle" fill="#7A4D3A" font-size="28" font-family="Poppins, Arial, sans-serif">Oleh-oleh Solo, hampers, dan camilan keluarga</text>
</svg>
